<svg width="65" height="67" viewBox="0 0 65 67" fill="none" xmlns="http://www.w3.org/2000/svg">
<path d="M46 7H16V48H46V7Z" fill="white"/>
<path d="M11.3832 10.9142C11.0889 7.97075 13.4003 5.41667 16.3584 5.41667H45.9336C48.8917 5.41667 51.2031 7.97076 50.9087 10.9142L46.4921 55.0809C46.2365 57.6369 44.0856 59.5833 41.5169 59.5833H20.7751C18.2063 59.5833 16.0555 57.6369 15.7999 55.0809L11.3832 10.9142ZM22.3168 10.8333C19.3587 10.8333 17.0472 13.3874 17.3416 16.3309L21.0038 52.9535C21.0727 53.6422 21.6522 54.1667 22.3444 54.1667C23.1416 54.1667 23.7645 53.4782 23.6849 52.685L20.5278 21.2067C20.2919 18.8544 21.7476 16.4859 24.111 16.5388C26.0483 16.5822 28.0477 17.2142 29.7918 18.9583C33.0058 22.1723 38.1162 21.5779 41.7728 20.5609C43.5913 20.0552 44.7978 18.3959 44.9723 16.5166L44.9928 16.2957C45.2651 13.3643 42.9583 10.8333 40.0142 10.8333H22.3168Z" fill="#FFC824"/>
<path d="M20.683 54L17 34.048H23.728L25.41 46.576H25.729L27.875 34.048H34.835L37.039 46.576H37.358L38.808 34.048H45.565L41.882 54H33.327L31.442 43.937H31.123L29.238 54H20.683Z" fill="black"/>
</svg>
