<svg width="166" height="67" viewBox="0 0 166 67" fill="none" xmlns="http://www.w3.org/2000/svg">
<rect x="4" y="21" width="162" height="46" rx="8" fill="black"/>
<path d="M126.276 54V39.21H132.279L132.395 40.863H132.685C133.033 40.341 133.429 39.9447 133.874 39.674C134.338 39.4033 134.802 39.2197 135.266 39.123C135.749 39.0263 136.184 38.978 136.571 38.978C137.518 38.978 138.272 39.1037 138.833 39.355C139.394 39.6063 139.809 39.9833 140.08 40.486C140.37 40.9693 140.554 41.5687 140.631 42.284C140.728 42.9993 140.776 43.821 140.776 44.749V54H134.57V46.199C134.57 45.5997 134.56 45.1357 134.541 44.807C134.522 44.4783 134.483 44.2463 134.425 44.111C134.367 43.9563 134.261 43.8693 134.106 43.85C133.971 43.8113 133.787 43.792 133.555 43.792C133.304 43.792 133.101 43.8113 132.946 43.85C132.791 43.8693 132.685 43.9563 132.627 44.111C132.569 44.2463 132.53 44.4783 132.511 44.807C132.492 45.1357 132.482 45.5997 132.482 46.199V54H126.276ZM149.705 54.232C149.028 54.232 148.293 54.2127 147.501 54.174C146.727 54.1353 145.973 54.087 145.239 54.029C144.504 53.971 143.847 53.9033 143.267 53.826V49.882C143.634 49.9013 144.001 49.9303 144.369 49.969C144.755 49.9883 145.123 50.0077 145.471 50.027C145.838 50.0463 146.176 50.0657 146.486 50.085C146.795 50.085 147.066 50.085 147.298 50.085C148.245 50.085 148.912 50.0753 149.299 50.056C149.705 50.0367 149.946 49.9787 150.024 49.882C150.12 49.766 150.169 49.6017 150.169 49.389C150.169 49.273 150.149 49.186 150.111 49.128C150.072 49.0507 149.956 48.9927 149.763 48.954C149.569 48.896 149.231 48.838 148.748 48.78L145.297 48.345C144.581 48.2483 144.04 47.997 143.673 47.591C143.325 47.1657 143.093 46.6147 142.977 45.938C142.861 45.242 142.803 44.4397 142.803 43.531C142.803 42.487 142.967 41.6653 143.296 41.066C143.644 40.4473 144.108 39.993 144.688 39.703C145.287 39.3937 145.983 39.2003 146.776 39.123C147.568 39.0263 148.409 38.978 149.299 38.978C149.995 38.978 150.7 38.9973 151.416 39.036C152.15 39.0747 152.837 39.123 153.475 39.181C154.113 39.239 154.635 39.3067 155.041 39.384V43.328C154.499 43.2893 153.968 43.2603 153.446 43.241C152.924 43.2023 152.46 43.1733 152.054 43.154C151.667 43.1347 151.367 43.125 151.155 43.125C150.304 43.125 149.685 43.1347 149.299 43.154C148.931 43.1733 148.699 43.2217 148.603 43.299C148.525 43.3763 148.487 43.502 148.487 43.676C148.487 43.8113 148.506 43.9177 148.545 43.995C148.583 44.0723 148.69 44.1303 148.864 44.169C149.038 44.2077 149.328 44.256 149.734 44.314L152.663 44.691C153.281 44.7683 153.832 44.923 154.316 45.155C154.799 45.387 155.176 45.8123 155.447 46.431C155.717 47.0497 155.853 47.997 155.853 49.273C155.853 50.4523 155.688 51.3803 155.36 52.057C155.05 52.7143 154.606 53.1977 154.026 53.507C153.465 53.8163 152.817 54.0097 152.083 54.087C151.348 54.1837 150.555 54.232 149.705 54.232Z" fill="white"/>
<path d="M11.3832 10.9142C11.0889 7.97075 13.4003 5.41667 16.3584 5.41667H45.9336C48.8917 5.41667 51.2031 7.97076 50.9087 10.9142L46.4921 55.0809C46.2365 57.6369 44.0856 59.5833 41.5169 59.5833H20.7751C18.2063 59.5833 16.0555 57.6369 15.7999 55.0809L11.3832 10.9142ZM22.3168 10.8333C19.3587 10.8333 17.0472 13.3874 17.3416 16.3309L21.0038 52.9535C21.0727 53.6422 21.6522 54.1667 22.3444 54.1667C23.1416 54.1667 23.7645 53.4782 23.6849 52.685L20.5278 21.2067C20.2919 18.8544 21.7476 16.4859 24.111 16.5388C26.0483 16.5822 28.0477 17.2142 29.7918 18.9583C33.0058 22.1723 38.1162 21.5779 41.7728 20.5609C43.5913 20.0552 44.7978 18.3959 44.9723 16.5166L44.9928 16.2957C45.2651 13.3643 42.9583 10.8333 40.0142 10.8333H22.3168Z" fill="#FFC824"/>
<path d="M54.814 54.232C53.9247 54.232 53.1803 54.0773 52.581 53.768C52.001 53.4587 51.5563 52.9657 51.247 52.289C50.957 51.6123 50.812 50.7423 50.812 49.679C50.812 48.577 50.9377 47.707 51.189 47.069C51.4403 46.4117 51.914 45.9477 52.61 45.677C53.306 45.387 54.3017 45.242 55.597 45.242C55.7517 45.242 55.9547 45.2517 56.206 45.271C56.4767 45.271 56.7763 45.2807 57.105 45.3C57.4337 45.3 57.7527 45.3097 58.062 45.329C58.3907 45.329 58.6903 45.3387 58.961 45.358V44.865C58.961 44.4783 58.9223 44.1787 58.845 43.966C58.787 43.7533 58.6613 43.6083 58.468 43.531C58.2747 43.4343 57.9653 43.3763 57.54 43.357C57.134 43.3377 56.583 43.328 55.887 43.328C55.423 43.328 54.9397 43.3377 54.437 43.357C53.9537 43.3763 53.4703 43.3957 52.987 43.415C52.5037 43.4343 52.0397 43.4633 51.595 43.502V39.5C52.3297 39.3647 53.219 39.2487 54.263 39.152C55.3263 39.036 56.5057 38.978 57.801 38.978C59.193 38.978 60.3433 39.065 61.252 39.239C62.1607 39.413 62.876 39.674 63.398 40.022C63.9393 40.3507 64.3357 40.7663 64.587 41.269C64.8383 41.7717 64.993 42.3517 65.051 43.009C65.1283 43.6663 65.167 44.4107 65.167 45.242V54H59.106L58.99 52.376H58.7C58.294 52.9367 57.8783 53.3523 57.453 53.623C57.047 53.8937 56.6217 54.058 56.177 54.116C55.7517 54.1933 55.2973 54.232 54.814 54.232ZM57.743 50.259C57.975 50.259 58.1587 50.2397 58.294 50.201C58.4293 50.1623 58.5453 50.1043 58.642 50.027C58.7387 49.9303 58.8063 49.824 58.845 49.708C58.903 49.5727 58.932 49.4083 58.932 49.215C58.9513 49.0217 58.961 48.7993 58.961 48.548V47.765H57.801C57.4143 47.765 57.1243 47.794 56.931 47.852C56.757 47.91 56.641 48.0357 56.583 48.229C56.5443 48.4223 56.525 48.722 56.525 49.128C56.525 49.3987 56.5443 49.621 56.583 49.795C56.6217 49.969 56.728 50.0947 56.902 50.172C57.076 50.23 57.3563 50.259 57.743 50.259ZM69.2415 54V43.56H66.8055V39.21H69.2415V34.918H75.5635V39.21H78.5215V43.56H75.5635V54H69.2415ZM86.5427 54.232C85.2281 54.232 84.1454 54.116 83.2947 53.884C82.4441 53.6327 81.7771 53.2847 81.2937 52.84C80.8104 52.3953 80.4624 51.8637 80.2497 51.245C80.0371 50.6263 79.9017 49.9303 79.8437 49.157C79.7857 48.3643 79.7567 47.5233 79.7567 46.634C79.7567 45.7447 79.7761 44.9133 79.8147 44.14C79.8727 43.3473 80.0081 42.6417 80.2207 42.023C80.4334 41.385 80.7814 40.8437 81.2647 40.399C81.7481 39.935 82.4151 39.587 83.2657 39.355C84.1164 39.1037 85.2087 38.978 86.5427 38.978C87.3934 38.978 88.2151 39.0263 89.0077 39.123C89.8004 39.2003 90.5737 39.326 91.3277 39.5V43.502C90.9797 43.4633 90.5157 43.4247 89.9357 43.386C89.3557 43.3473 88.8047 43.328 88.2827 43.328C87.7607 43.328 87.3451 43.3667 87.0357 43.444C86.7457 43.5213 86.5234 43.676 86.3687 43.908C86.2334 44.1207 86.1464 44.4493 86.1077 44.894C86.0691 45.3193 86.0497 45.8897 86.0497 46.605C86.0497 47.3203 86.0691 47.9003 86.1077 48.345C86.1464 48.7703 86.2334 49.099 86.3687 49.331C86.5041 49.5437 86.7167 49.6887 87.0067 49.766C87.3161 49.8433 87.7414 49.882 88.2827 49.882C88.7274 49.882 89.2397 49.8627 89.8197 49.824C90.4191 49.7853 90.9604 49.737 91.4437 49.679V53.681C90.6511 53.855 89.8294 53.9903 88.9787 54.087C88.1474 54.1837 87.3354 54.232 86.5427 54.232ZM93.6715 54V32.453H99.8775V40.863H100.168C100.516 40.341 100.902 39.9447 101.328 39.674C101.772 39.4033 102.227 39.2197 102.691 39.123C103.174 39.0263 103.609 38.978 103.996 38.978C104.943 38.978 105.687 39.1037 106.229 39.355C106.789 39.6063 107.205 39.9833 107.476 40.486C107.766 40.9693 107.949 41.5687 108.027 42.284C108.123 42.9993 108.172 43.821 108.172 44.749V54H101.966V46.199C101.966 45.5997 101.956 45.1357 101.937 44.807C101.917 44.4783 101.879 44.2463 101.821 44.111C101.763 43.9563 101.656 43.8693 101.502 43.85C101.366 43.8113 101.183 43.792 100.951 43.792C100.699 43.792 100.496 43.8113 100.342 43.85C100.187 43.8693 100.081 43.9563 100.023 44.111C99.9645 44.2463 99.9258 44.4783 99.9065 44.807C99.8872 45.1357 99.8775 45.5997 99.8775 46.199V54H93.6715Z" fill="white"/>
<path d="M46 7H16V48H46V7Z" fill="white"/>
<path d="M11.3832 10.9142C11.0889 7.97075 13.4003 5.41667 16.3584 5.41667H45.9336C48.8917 5.41667 51.2031 7.97076 50.9087 10.9142L46.4921 55.0809C46.2365 57.6369 44.0856 59.5833 41.5169 59.5833H20.7751C18.2063 59.5833 16.0555 57.6369 15.7999 55.0809L11.3832 10.9142ZM22.3168 10.8333C19.3587 10.8333 17.0472 13.3874 17.3416 16.3309L21.0038 52.9535C21.0727 53.6422 21.6522 54.1667 22.3444 54.1667C23.1416 54.1667 23.7645 53.4782 23.6849 52.685L20.5278 21.2067C20.2919 18.8544 21.7476 16.4859 24.111 16.5388C26.0483 16.5822 28.0477 17.2142 29.7918 18.9583C33.0058 22.1723 38.1162 21.5779 41.7728 20.5609C43.5913 20.0552 44.7978 18.3959 44.9723 16.5166L44.9928 16.2957C45.2651 13.3643 42.9583 10.8333 40.0142 10.8333H22.3168Z" fill="#FFC824"/>
<path d="M20.683 54L17 34.048H23.728L25.41 46.576H25.729L27.875 34.048H34.835L37.039 46.576H37.358L38.808 34.048H45.565L41.882 54H33.327L31.442 43.937H31.123L29.238 54H20.683Z" fill="black"/>
<path d="M117 39.6875C112.968 39.6875 109.688 42.9679 109.688 47C109.688 51.0321 112.968 54.3125 117 54.3125C121.032 54.3125 124.312 51.0321 124.312 47C124.312 42.9679 121.032 39.6875 117 39.6875ZM122.027 50.375H120.438C120.388 50.3749 120.34 50.3618 120.297 50.3372C120.255 50.3125 120.219 50.277 120.195 50.2344L119.627 49.2613C119.59 49.1976 119.579 49.1219 119.597 49.0503L120.119 46.9437C120.13 46.9013 120.15 46.8619 120.179 46.8286C120.207 46.7954 120.243 46.7692 120.283 46.7521L121.271 46.3338C121.319 46.3133 121.372 46.3067 121.424 46.3148C121.476 46.3229 121.524 46.3453 121.564 46.3795L123.028 47.6388C123.064 47.6699 123.091 47.7096 123.108 47.7542C123.124 47.7988 123.129 47.847 123.122 47.894C123.001 48.7256 122.71 49.5234 122.269 50.2382C122.244 50.2799 122.208 50.3144 122.166 50.3384C122.124 50.3624 122.076 50.375 122.027 50.375ZM112.729 46.3366L113.717 46.755C113.757 46.772 113.793 46.7982 113.821 46.8314C113.85 46.8647 113.87 46.9041 113.881 46.9466L114.403 49.0531C114.421 49.1247 114.41 49.2004 114.373 49.2641L113.805 50.2344C113.781 50.277 113.745 50.3125 113.703 50.3372C113.66 50.3618 113.612 50.3749 113.562 50.375H111.973C111.925 50.375 111.877 50.3627 111.835 50.3393C111.793 50.3158 111.758 50.282 111.733 50.2411C111.291 49.5263 111.001 48.7284 110.879 47.8968C110.872 47.8498 110.877 47.8017 110.894 47.757C110.91 47.7124 110.938 47.6727 110.974 47.6416L112.437 46.3823C112.477 46.3484 112.525 46.3261 112.577 46.3181C112.628 46.31 112.681 46.3164 112.729 46.3366ZM121.762 43.2696L121.127 45.0759C121.114 45.1128 121.094 45.1467 121.067 45.1753C121.041 45.2039 121.009 45.2267 120.973 45.2422L119.933 45.6827C119.885 45.7029 119.833 45.7095 119.781 45.7018C119.73 45.6941 119.682 45.6724 119.642 45.6391L117.664 43.9801C117.633 43.9539 117.607 43.9212 117.59 43.8841C117.572 43.8471 117.563 43.8066 117.562 43.7656V42.5851C117.563 42.5388 117.574 42.4933 117.596 42.4525C117.618 42.4117 117.649 42.377 117.688 42.3513L119.193 41.3479C119.233 41.3217 119.278 41.3058 119.325 41.3017C119.372 41.2976 119.419 41.3054 119.463 41.3244C120.329 41.7023 121.098 42.2726 121.711 42.9922C121.743 43.0298 121.765 43.0753 121.774 43.124C121.783 43.1727 121.779 43.2229 121.762 43.2696ZM114.806 41.3479L116.312 42.3513C116.351 42.377 116.382 42.4117 116.404 42.4525C116.426 42.4933 116.437 42.5388 116.438 42.5851V43.7656C116.437 43.8067 116.428 43.8473 116.411 43.8845C116.394 43.9218 116.368 43.9547 116.337 43.9811L114.359 45.6402C114.319 45.6735 114.271 45.6952 114.22 45.7029C114.169 45.7106 114.116 45.7039 114.069 45.6838L113.027 45.2422C112.991 45.2269 112.959 45.2043 112.932 45.1757C112.905 45.1471 112.885 45.1132 112.872 45.0763L112.236 43.2699C112.22 43.2231 112.216 43.1727 112.225 43.1239C112.235 43.0752 112.257 43.0297 112.289 42.9922C112.902 42.2719 113.672 41.701 114.539 41.323C114.582 41.3045 114.629 41.2972 114.676 41.3015C114.722 41.3059 114.767 41.3218 114.806 41.3479ZM115.415 52.8602L114.721 51.1133C114.705 51.0736 114.699 51.0308 114.702 50.9881C114.705 50.9455 114.718 50.9041 114.739 50.8672L115.273 49.9531C115.297 49.9105 115.333 49.875 115.375 49.8503C115.418 49.8257 115.466 49.8126 115.516 49.8125H118.484C118.534 49.8126 118.582 49.8257 118.625 49.8503C118.667 49.875 118.703 49.9105 118.727 49.9531L119.261 50.8672C119.283 50.9041 119.295 50.9454 119.299 50.9881C119.302 51.0307 119.295 51.0735 119.28 51.1133L118.591 52.8595C118.574 52.9022 118.547 52.9401 118.512 52.97C118.477 52.9998 118.436 53.0207 118.391 53.0307C117.477 53.2405 116.527 53.2405 115.613 53.0307C115.569 53.0205 115.528 52.9997 115.493 52.97C115.458 52.9403 115.432 52.9026 115.415 52.8602Z" fill="#FFC824"/>
<path d="M20.683 54L17 34.048H23.728L25.41 46.576H25.729L27.875 34.048H34.835L37.039 46.576H37.358L38.808 34.048H45.565L41.882 54H33.327L31.442 43.937H31.123L29.238 54H20.683Z" fill="black"/>
</svg>
